<svg width="75" height="75" viewBox="0 0 75 75" fill="none" xmlns="http://www.w3.org/2000/svg">
<path d="M37.344 52.904C44.2188 52.904 49.792 47.3308 49.792 40.456H24.896C24.896 47.3308 30.4692 52.904 37.344 52.904Z" fill="#c26a80"/>
<path d="M31.12 31.12C31.12 32.8387 29.7267 34.232 28.008 34.232C26.2893 34.232 24.896 32.8387 24.896 31.12C24.896 29.4013 26.2893 28.008 28.008 28.008C29.7267 28.008 31.12 29.4013 31.12 31.12Z" fill="#c26a80"/>
<path d="M46.68 34.232C48.3987 34.232 49.792 32.8387 49.792 31.12C49.792 29.4013 48.3987 28.008 46.68 28.008C44.9613 28.008 43.568 29.4013 43.568 31.12C43.568 32.8387 44.9613 34.232 46.68 34.232Z" fill="#c26a80"/>
<path fill-rule="evenodd" clip-rule="evenodd" d="M68.464 37.344C68.464 54.5311 54.5311 68.464 37.344 68.464C20.1569 68.464 6.224 54.5311 6.224 37.344C6.224 20.1569 20.1569 6.224 37.344 6.224C54.5311 6.224 68.464 20.1569 68.464 37.344ZM62.24 37.344C62.24 51.0937 51.0937 62.24 37.344 62.24C23.5943 62.24 12.448 51.0937 12.448 37.344C12.448 23.5943 23.5943 12.448 37.344 12.448C51.0937 12.448 62.24 23.5943 62.24 37.344Z" fill="#c26a80"/>
</svg>
