<svg width="75" height="75" viewBox="0 0 75 75" fill="none" xmlns="http://www.w3.org/2000/svg">
<path d="M49.4079 43.5365C49.8319 41.8709 48.3987 40.456 46.68 40.456V40.456C44.9613 40.456 43.6325 41.9327 42.8072 43.4403C41.7504 45.3709 39.7001 46.68 37.344 46.68C34.9879 46.68 32.9376 45.3709 31.8808 43.4403C31.0555 41.9327 29.7267 40.456 28.008 40.456V40.456C26.2893 40.456 24.8561 41.8709 25.2801 43.5365C26.651 48.9214 31.5324 52.904 37.344 52.904C43.1556 52.904 48.037 48.9214 49.4079 43.5365Z" fill="#c26a80"/>
<path d="M31.12 31.12C31.12 32.8387 29.7267 34.232 28.008 34.232C26.2893 34.232 24.896 32.8387 24.896 31.12C24.896 29.4013 26.2893 28.008 28.008 28.008C29.7267 28.008 31.12 29.4013 31.12 31.12Z" fill="#c26a80"/>
<path d="M46.68 34.232C48.3987 34.232 49.792 32.8387 49.792 31.12C49.792 29.4013 48.3987 28.008 46.68 28.008C44.9613 28.008 43.568 29.4013 43.568 31.12C43.568 32.8387 44.9613 34.232 46.68 34.232Z" fill="#c26a80"/>
<path fill-rule="evenodd" clip-rule="evenodd" d="M68.464 37.344C68.464 54.5311 54.5311 68.464 37.344 68.464C20.1569 68.464 6.224 54.5311 6.224 37.344C6.224 20.1569 20.1569 6.224 37.344 6.224C54.5311 6.224 68.464 20.1569 68.464 37.344ZM62.24 37.344C62.24 51.0937 51.0937 62.24 37.344 62.24C23.5943 62.24 12.448 51.0937 12.448 37.344C12.448 23.5943 23.5943 12.448 37.344 12.448C51.0937 12.448 62.24 23.5943 62.24 37.344Z" fill="#c26a80"/>
</svg>
