<svg width="75" height="75" viewBox="0 0 75 75" fill="none" xmlns="http://www.w3.org/2000/svg">
<path d="M49.4077 31.1515C49.8318 32.8171 48.3985 34.232 46.6798 34.232V34.232C44.9611 34.232 43.6323 32.7553 42.807 31.2477C41.7502 29.3171 39.6999 28.008 37.3438 28.008C34.9878 28.008 32.9375 29.3171 31.8806 31.2477C31.0553 32.7553 29.7265 34.232 28.0078 34.232V34.232C26.2891 34.232 24.8559 32.8171 25.2799 31.1515C26.6508 25.7666 31.5322 21.784 37.3438 21.784C43.1554 21.784 48.0369 25.7666 49.4077 31.1515Z" fill="#c26a80"/>
<path d="M31.1198 43.568C31.1198 41.8493 29.7265 40.456 28.0078 40.456C26.2891 40.456 24.8958 41.8493 24.8958 43.568C24.8958 45.2867 26.2891 46.68 28.0078 46.68C29.7265 46.68 31.1198 45.2867 31.1198 43.568Z" fill="#c26a80"/>
<path d="M46.6798 40.456C48.3986 40.456 49.7918 41.8493 49.7918 43.568C49.7918 45.2867 48.3986 46.68 46.6798 46.68C44.9611 46.68 43.5678 45.2867 43.5678 43.568C43.5678 41.8493 44.9611 40.456 46.6798 40.456Z" fill="#c26a80"/>
<path fill-rule="evenodd" clip-rule="evenodd" d="M68.4638 37.344C68.4638 20.1569 54.5309 6.224 37.3438 6.224C20.1567 6.224 6.22384 20.1569 6.22384 37.344C6.22384 54.5311 20.1567 68.464 37.3438 68.464C54.5309 68.464 68.4638 54.5311 68.4638 37.344ZM62.2398 37.344C62.2398 23.5943 51.0935 12.448 37.3438 12.448C23.5942 12.448 12.4478 23.5943 12.4478 37.344C12.4478 51.0937 23.5942 62.24 37.3438 62.24C51.0935 62.24 62.2398 51.0937 62.2398 37.344Z" fill="#c26a80"/>
</svg>
